<svg width="20" height="20" viewBox="0 0 20 20" fill="none" xmlns="http://www.w3.org/2000/svg">
<g id="material-symbols:alternate-email">
<path id="Vector" d="M10 18.3334C8.86113 18.3334 7.78474 18.1145 6.77085 17.6767C5.75696 17.2395 4.87169 16.6423 4.11502 15.8851C3.3578 15.1284 2.76058 14.2431 2.32335 13.2292C1.88558 12.2154 1.66669 11.139 1.66669 10.0001C1.66669 8.8473 1.88558 7.76758 2.32335 6.76091C2.76058 5.75369 3.3578 4.87175 4.11502 4.11508C4.87169 3.35786 5.75696 2.76036 6.77085 2.32258C7.78474 1.88536 8.86113 1.66675 10 1.66675C11.1528 1.66675 12.2325 1.88536 13.2392 2.32258C14.2464 2.76036 15.1284 3.35786 15.885 4.11508C16.6422 4.87175 17.2395 5.75369 17.6767 6.76091C18.1145 7.76758 18.3334 8.8473 18.3334 10.0001V11.2084C18.3334 12.0279 18.0522 12.7256 17.49 13.3017C16.9272 13.8784 16.2361 14.1667 15.4167 14.1667C14.9167 14.1667 14.4514 14.0556 14.0209 13.8334C13.5903 13.6112 13.2361 13.3195 12.9584 12.9584C12.5834 13.3334 12.1425 13.6287 11.6359 13.8442C11.1286 14.0592 10.5834 14.1667 10 14.1667C8.84724 14.1667 7.86474 13.7604 7.05252 12.9476C6.23974 12.1354 5.83335 11.1529 5.83335 10.0001C5.83335 8.8473 6.23974 7.86452 7.05252 7.05175C7.86474 6.23952 8.84724 5.83341 10 5.83341C11.1528 5.83341 12.1356 6.23952 12.9484 7.05175C13.7606 7.86452 14.1667 8.8473 14.1667 10.0001V11.2084C14.1667 11.6112 14.2917 11.927 14.5417 12.1559C14.7917 12.3854 15.0834 12.5001 15.4167 12.5001C15.75 12.5001 16.0417 12.3854 16.2917 12.1559C16.5417 11.927 16.6667 11.6112 16.6667 11.2084V10.0001C16.6667 8.18064 16.0103 6.61452 14.6975 5.30175C13.3853 3.98953 11.8195 3.33341 10 3.33341C8.18057 3.33341 6.61446 3.98953 5.30169 5.30175C3.98946 6.61452 3.33335 8.18064 3.33335 10.0001C3.33335 11.8195 3.98946 13.3854 5.30169 14.6976C6.61446 16.0104 8.18057 16.6667 10 16.6667H14.1667V18.3334H10ZM10 12.5001C10.6945 12.5001 11.2847 12.257 11.7709 11.7709C12.257 11.2848 12.5 10.6945 12.5 10.0001C12.5 9.30564 12.257 8.71536 11.7709 8.22925C11.2847 7.74314 10.6945 7.50008 10 7.50008C9.30557 7.50008 8.7153 7.74314 8.22919 8.22925C7.74307 8.71536 7.50002 9.30564 7.50002 10.0001C7.50002 10.6945 7.74307 11.2848 8.22919 11.7709C8.7153 12.257 9.30557 12.5001 10 12.5001Z" fill="#898989"/>
</g>
</svg>
